<svg xmlns="http://www.w3.org/2000/svg" xmlns:xlink="http://www.w3.org/1999/xlink" viewBox="0 0 22 27.5" version="1.1" x="0px" y="0px"><title>cat_6</title><desc>Created with Sketch.</desc><g stroke="none" stroke-width="1" fill="none" fill-rule="evenodd"><g transform="translate(-37.000000, -34.000000)" fill-rule="nonzero" fill="#000000"><path d="M39,36 L39,42 L45,42 L45,36 L39,36 Z M37,34.9953976 C37,34.4456547 37.4556644,34 37.9953976,34 L46.0046024,34 C46.5543453,34 47,34.4556644 47,34.9953976 L47,43.0046024 C47,43.5543453 46.5443356,44 46.0046024,44 L37.9953976,44 C37.4456547,44 37,43.5443356 37,43.0046024 L37,34.9953976 Z M39,48 L39,54 L45,54 L45,48 L39,48 Z M37,46.9953976 C37,46.4456547 37.4556644,46 37.9953976,46 L46.0046024,46 C46.5543453,46 47,46.4556644 47,46.9953976 L47,55.0046024 C47,55.5543453 46.5443356,56 46.0046024,56 L37.9953976,56 C37.4456547,56 37,55.5443356 37,55.0046024 L37,46.9953976 Z M51,48 L51,54 L57,54 L57,48 L51,48 Z M49,46.9953976 C49,46.4456547 49.4556644,46 49.9953976,46 L58.0046024,46 C58.5543453,46 59,46.4556644 59,46.9953976 L59,55.0046024 C59,55.5543453 58.5443356,56 58.0046024,56 L49.9953976,56 C49.4456547,56 49,55.5443356 49,55.0046024 L49,46.9953976 Z M51,36 L51,42 L57,42 L57,36 L51,36 Z M49,34.9953976 C49,34.4456547 49.4556644,34 49.9953976,34 L58.0046024,34 C58.5543453,34 59,34.4556644 59,34.9953976 L59,43.0046024 C59,43.5543453 58.5443356,44 58.0046024,44 L49.9953976,44 C49.4456547,44 49,43.5443356 49,43.0046024 L49,34.9953976 Z"/></g></g><text x="0" y="37" fill="#000000" font-size="5px" font-weight="bold" font-family="'Helvetica Neue', Helvetica, Arial-Unicode, Arial, Sans-serif">Created by Philip Belov</text><text x="0" y="42" fill="#000000" font-size="5px" font-weight="bold" font-family="'Helvetica Neue', Helvetica, Arial-Unicode, Arial, Sans-serif">from the Noun Project</text></svg>