<?xml version="1.0" encoding="UTF-8" standalone="no"?>
<!DOCTYPE svg PUBLIC "-//W3C//DTD SVG 1.1//EN" "http://www.w3.org/Graphics/SVG/1.1/DTD/svg11.dtd">
<svg version="1.1" xmlns="http://www.w3.org/2000/svg" xmlns:xlink="http://www.w3.org/1999/xlink" preserveAspectRatio="xMidYMid meet" viewBox="0 0 640 640" width="640" height="640"><defs><path d="M435.16 186.85C435.11 186.85 435.08 186.85 435.08 186.85C434.71 187.07 434.32 187.22 433.91 187.32C435.72 186.69 437.62 186.37 439.54 186.38C438.06 186.16 436.55 186.33 435.16 186.85" id="bApsAU59s"></path><path d="M479.83 199.44C479.83 199.44 479.83 199.44 479.83 199.44C478.7 199.03 477.51 198.85 476.31 198.9C477.87 198.95 479.41 199.3 480.84 199.91C480.52 199.72 480.18 199.57 479.83 199.44" id="e52SBKnxYI"></path><path d="M471.93 199.37C471.93 199.37 471.93 199.37 471.93 199.37C471.55 199.63 471.12 199.81 470.67 199.91C472.45 199.23 474.33 198.88 476.23 198.9C474.78 198.73 473.31 198.89 471.93 199.37" id="b2GI8dJo3Z"></path><path d="M481.39 200.23C481.39 200.23 481.39 200.23 481.39 200.23C480.26 199.84 479.06 199.68 477.87 199.76C479.43 199.79 480.97 200.11 482.41 200.7C482.02 200.54 481.78 200.38 481.39 200.23" id="c2WgBNtTVs"></path><path d="M473.57 200.15C473.57 200.15 473.57 200.15 473.57 200.15C473.18 200.38 472.79 200.46 472.32 200.7C474.09 200 475.97 199.66 477.87 199.68C476.42 199.58 474.97 199.74 473.57 200.15" id="aBkLtaVc1"></path><path d="M325.32 510.81C325.05 510.86 324.79 510.94 324.54 511.04C324.81 511.01 325.08 510.93 325.32 510.81M309.75 511.28C309.64 511.29 309.53 511.26 309.44 511.2C309.53 511.26 309.64 511.29 309.75 511.28M322.82 511.43C322.27 511.51 321.56 511.67 321.1 511.75C321.56 511.67 322.19 511.51 322.82 511.43M319.69 511.82C319.22 511.89 318.75 511.91 318.28 511.9C318.75 511.99 319.23 511.97 319.69 511.82" id="amX0EYMpR"></path><path d="M320.94 511.67C320.47 511.67 320 511.75 319.69 511.75C320.11 511.75 320.52 511.73 320.94 511.67M309.52 511.28C308.78 511.16 308.05 511 307.33 510.81C308.03 510.89 308.73 511.12 309.52 511.28M324.62 510.96C324 511.17 323.37 511.32 322.74 511.43C323.37 511.32 324 511.17 324.62 510.96M315.62 511.98C313.67 511.94 311.73 511.7 309.83 511.28C311.72 511.75 313.67 511.98 315.62 511.98M318.2 511.9C317.65 511.9 316.95 511.98 316.24 511.98C316.9 512 317.55 511.97 318.2 511.9M442.98 186.85C442.93 186.85 442.91 186.85 442.9 186.85C441.8 186.43 440.63 186.25 439.46 186.3C441.01 186.43 442.54 186.77 444 187.32C443.64 187.19 443.3 187.04 442.98 186.85" id="hrmAmMn4t"></path><path d="M435.16 186.85C435.11 186.85 435.08 186.85 435.08 186.85C434.71 187.07 434.32 187.22 433.91 187.32C435.72 186.69 437.62 186.37 439.54 186.38C438.06 186.16 436.55 186.33 435.16 186.85" id="aXesBwaY8"></path><path d="M479.83 199.44C479.83 199.44 479.83 199.44 479.83 199.44C478.7 199.03 477.51 198.85 476.31 198.9C477.87 198.95 479.41 199.3 480.84 199.91C480.52 199.72 480.18 199.57 479.83 199.44" id="b2sDH1C1cv"></path><path d="M471.93 199.37C471.93 199.37 471.93 199.37 471.93 199.37C471.55 199.63 471.12 199.81 470.67 199.91C472.45 199.23 474.33 198.88 476.23 198.9C474.78 198.73 473.31 198.89 471.93 199.37" id="b3UPNStaU"></path><path d="M481.39 200.23C481.39 200.23 481.39 200.23 481.39 200.23C480.26 199.84 479.06 199.68 477.87 199.76C479.43 199.79 480.97 200.11 482.41 200.7C482.02 200.54 481.78 200.38 481.39 200.23" id="a3GpphYGw7"></path><path d="M473.57 200.15C473.57 200.15 473.57 200.15 473.57 200.15C473.18 200.38 472.79 200.46 472.32 200.7C474.09 200 475.97 199.66 477.87 199.68C476.42 199.58 474.97 199.74 473.57 200.15" id="czkOI5wu"></path><path d="M440.77 296.82L440.23 299.07L439.68 301.33L439.12 303.58L438.56 305.83L437.99 308.08L437.41 310.33L436.82 312.57L436.23 314.82L435.63 317.06L435.03 319.3L434.42 321.54L433.8 323.77L433.17 326.01L432.54 328.24L431.9 330.47L431.25 332.7L430.6 334.92L429.94 337.14L429.27 339.37L428.59 341.59L427.91 343.8L427.22 346.02L426.53 348.23L425.82 350.44L425.12 352.65L424.4 354.86L423.68 357.06L422.95 359.27L422.21 361.47L421.47 363.67L420.72 365.86L419.96 368.05L419.19 370.25L418.42 372.43L417.65 374.62L416.86 376.81L416.07 378.99L413.74 385.33L411.41 391.5L409.08 397.5L406.74 403.32L404.4 408.98L402.06 414.46L399.72 419.78L397.38 424.94L395.04 429.93L392.7 434.75L390.36 439.42L388.02 443.92L385.68 448.27L383.34 452.46L381.01 456.49L378.69 460.37L376.37 464.1L374.05 467.67L371.74 471.1L369.43 474.37L367.13 477.5L364.84 480.48L362.56 483.32L360.29 486.01L358.02 488.56L355.77 490.97L353.52 493.24L351.29 495.37L349.07 497.37L346.86 499.23L344.66 500.96L342.48 502.56L340.31 504.02L338.15 505.36L336.01 506.56L333.89 507.64L332.14 508.44L330.91 509.02L328.57 509.95L328.49 509.95L328.42 509.98L328.35 510L328.27 510.03L328.2 510.06L328.13 510.09L328.06 510.11L327.99 510.14L327.91 510.17L327.84 510.19L327.77 510.22L327.69 510.24L327.62 510.27L327.55 510.29L327.48 510.31L327.4 510.34L327.33 510.36L327.26 510.39L327.18 510.41L327.11 510.43L327.04 510.46L326.96 510.48L326.81 510.53L326.74 510.55L326.66 510.57L326.59 510.6L326.51 510.62L326.44 510.65L326.36 510.67L326.29 510.7L326.21 510.72L326.14 510.75L326.06 510.77L325.98 510.8L325.91 510.82L325.83 510.85L325.75 510.88L325.68 510.91L325.6 510.94L325.52 510.96L325.5 510.96L325.48 510.96L325.47 510.97L325.45 510.97L325.43 510.97L325.41 510.97L325.39 510.97L325.37 510.97L325.36 510.97L325.34 510.98L325.32 510.98L325.3 510.98L325.28 510.98L325.26 510.99L325.24 510.99L325.21 510.99L325.19 511L325.17 511L325.13 511.01L325.11 511.01L325.09 511.01L325.07 511.01L325.05 511.02L325.03 511.02L325.01 511.02L324.99 511.03L324.96 511.03L324.94 511.03L324.92 511.03L324.9 511.03L324.88 511.04L324.86 511.04L324.83 511.04L324.81 511.04L324.79 511.04L324.76 511.04L324.74 511.04L324.72 511.04L324.67 511.06L324.62 511.07L324.57 511.08L324.53 511.1L324.48 511.11L324.43 511.12L324.39 511.13L324.34 511.14L324.29 511.16L324.24 511.17L324.19 511.18L324.15 511.19L324.1 511.2L324.05 511.21L324 511.22L323.96 511.23L323.91 511.24L323.86 511.24L323.81 511.25L323.76 511.26L323.71 511.27L323.67 511.28L323.62 511.28L323.57 511.29L323.52 511.3L323.47 511.3L323.42 511.31L323.37 511.31L323.33 511.32L323.28 511.32L323.23 511.33L323.18 511.33L323.13 511.34L323.08 511.34L323.03 511.34L322.98 511.35L322.93 511.35L322.89 511.35L322.84 511.35L322.79 511.36L322.74 511.36L322.69 511.37L322.65 511.38L322.6 511.38L322.55 511.39L322.51 511.4L322.46 511.41L322.42 511.42L322.38 511.43L322.33 511.44L322.29 511.45L322.25 511.46L322.2 511.47L322.16 511.48L322.12 511.49L322.08 511.5L322 511.52L321.96 511.53L321.91 511.54L321.87 511.55L321.83 511.56L321.79 511.57L321.75 511.58L321.71 511.59L321.67 511.6L321.63 511.61L321.59 511.62L321.55 511.62L321.51 511.63L321.47 511.64L321.43 511.64L321.39 511.65L321.35 511.65L321.31 511.66L321.27 511.66L321.23 511.66L321.18 511.67L321.14 511.67L321.1 511.67L321.06 511.67L321.02 511.67L320.98 511.67L320.94 511.67L320.9 511.67L320.86 511.67L320.82 511.67L320.78 511.68L320.74 511.68L320.7 511.68L320.67 511.68L320.63 511.69L320.59 511.69L320.56 511.69L320.52 511.69L320.48 511.7L320.45 511.7L320.41 511.7L320.37 511.7L320.3 511.71L320.27 511.71L320.23 511.72L320.19 511.72L320.16 511.72L320.12 511.72L320.08 511.73L320.05 511.73L320.01 511.73L319.97 511.73L319.93 511.74L319.9 511.74L319.86 511.74L319.82 511.74L319.78 511.74L319.74 511.74L319.7 511.75L319.66 511.75L319.62 511.75L319.57 511.75L319.54 511.76L319.5 511.76L319.47 511.77L319.43 511.78L319.4 511.79L319.36 511.8L319.32 511.81L319.29 511.81L319.25 511.82L319.22 511.83L319.18 511.84L319.15 511.84L319.11 511.85L319.07 511.86L319.04 511.87L319 511.87L318.97 511.88L318.93 511.89L318.89 511.89L318.86 511.9L318.82 511.9L318.78 511.91L318.75 511.91L318.71 511.92L318.68 511.92L318.64 511.93L318.6 511.93L318.57 511.94L318.53 511.94L318.49 511.95L318.46 511.95L318.42 511.96L318.38 511.96L318.35 511.96L318.31 511.97L318.27 511.97L318.24 511.97L318.2 511.98L318.17 511.98L318.13 511.98L315.56 511.98L315.41 511.98L315.25 511.97L315.1 511.96L314.95 511.95L314.8 511.94L314.65 511.93L314.49 511.92L314.34 511.91L314.19 511.9L314.04 511.89L313.89 511.88L313.74 511.86L313.58 511.85L313.43 511.83L313.28 511.82L313.13 511.8L312.98 511.78L312.83 511.76L312.68 511.75L312.53 511.73L312.38 511.71L312.22 511.69L312.07 511.66L311.92 511.64L311.77 511.62L311.62 511.6L311.47 511.57L311.32 511.55L311.17 511.52L311.02 511.5L310.87 511.47L310.72 511.44L310.57 511.41L310.43 511.39L310.28 511.36L310.13 511.33L309.98 511.3L309.83 511.26L309.68 511.23L309.53 511.2L309.21 511.2L309.15 511.19L309.1 511.18L309.04 511.17L308.98 511.16L308.92 511.15L308.87 511.15L308.81 511.14L308.75 511.12L308.7 511.11L308.64 511.1L308.58 511.09L308.52 511.08L308.47 511.07L308.41 511.06L308.35 511.05L308.3 511.03L308.24 511.02L308.18 511.01L308.13 510.99L308.07 510.98L308.02 510.97L307.96 510.95L307.9 510.94L307.85 510.92L307.79 510.91L307.74 510.89L307.68 510.88L307.62 510.86L307.57 510.85L307.51 510.83L307.46 510.81L307.4 510.8L307.35 510.78L307.29 510.76L307.24 510.74L307.18 510.73L307.13 510.71L307.07 510.69L307.02 510.67L306.96 510.65L306.9 510.63L306.84 510.62L306.78 510.6L306.72 510.58L306.66 510.57L306.6 510.55L306.53 510.53L306.47 510.52L306.41 510.5L306.35 510.49L306.28 510.47L306.22 510.45L306.16 510.44L306.1 510.42L306.03 510.41L305.97 510.39L305.91 510.38L305.84 510.36L305.78 510.34L305.72 510.33L305.65 510.31L305.59 510.3L305.53 510.28L305.46 510.26L305.4 510.25L305.34 510.23L305.27 510.21L305.21 510.19L305.15 510.17L305.09 510.16L305.02 510.14L304.96 510.12L304.9 510.1L304.84 510.08L304.78 510.06L304.71 510.04L304.65 510.02L304.59 509.99L304.53 509.97L304.47 509.95L302.13 509.03L299.89 507.95L298.91 507.5L296.8 506.41L294.67 505.18L292.52 503.84L290.36 502.36L288.19 500.75L286.01 499.01L283.81 497.14L281.6 495.14L279.38 493L277.14 490.72L274.9 488.3L272.65 485.75L270.39 483.05L268.12 480.21L265.84 477.23L263.55 474.11L261.26 470.83L258.96 467.41L256.65 463.85L254.34 460.13L252.03 456.25L249.7 452.23L247.38 448.05L245.05 443.72L242.72 439.23L240.38 434.58L238.05 429.77L235.71 424.8L233.37 419.66L231.03 414.37L228.69 408.9L226.35 403.27L224.02 397.48L221.68 391.51L219.35 385.37L217.02 379.07L216.2 376.82L215.4 374.58L214.6 372.33L213.81 370.08L213.03 367.83L212.26 365.58L211.49 363.32L210.72 361.07L209.97 358.81L209.22 356.54L208.48 354.28L207.75 352.01L207.02 349.74L206.3 347.47L205.59 345.2L204.89 342.92L204.19 340.64L203.5 338.36L202.81 336.08L202.14 333.8L201.47 331.51L200.8 329.22L200.15 326.93L199.5 324.64L198.86 322.34L198.23 320.05L197.6 317.75L196.98 315.45L196.37 313.14L195.76 310.84L195.16 308.53L194.57 306.22L193.99 303.91L193.41 301.6L192.84 299.29L192.28 296.97L191.73 294.65L191.18 292.33L190.64 290.01L190.16 287.95L189.51 290.32L189.5 290.29L189.04 292.22L188.48 294.53L187.92 296.84L187.35 299.15L186.77 301.46L186.19 303.78L185.59 306.1L185 308.42L184.39 310.74L183.78 313.06L183.16 315.37L182.53 317.69L181.9 320.01L181.26 322.33L180.62 324.65L179.96 326.96L179.31 329.28L178.64 331.59L177.97 333.9L177.29 336.2L176.61 338.5L175.92 340.8L175.22 343.1L174.52 345.39L173.81 347.68L173.09 349.96L172.37 352.24L171.64 354.51L170.9 356.78L170.16 359.04L169.42 361.29L168.66 363.54L167.9 365.78L167.14 368.02L166.37 370.24L165.59 372.46L164.81 374.67L164.02 376.87L163.22 379.07L160.26 387.05L157.3 394.75L154.33 402.18L151.37 409.34L148.4 416.24L145.43 422.87L142.46 429.23L139.5 435.34L136.53 441.18L133.58 446.78L130.63 452.12L127.68 457.22L124.74 462.06L121.81 466.67L118.89 471.03L115.99 475.16L113.09 479.05L110.21 482.71L107.34 486.14L104.48 489.34L101.64 492.32L98.82 495.08L96.02 497.62L93.23 499.94L90.47 502.05L87.72 503.95L85 505.65L82.3 507.14L79.63 508.42L76.98 509.51L74.36 510.4L71.77 511.1L69.2 511.6L66.67 511.92L64.16 512.05L61.69 512L59.25 511.77L56.84 511.36L54.47 510.78L52.13 510.03L52.06 510.03L49.78 509.1L47.58 508.02L45.48 506.78L43.46 505.38L41.53 503.83L39.69 502.11L37.95 500.24L36.31 498.2L34.76 495.99L33.33 493.62L31.99 491.09L30.77 488.38L29.66 485.5L28.66 482.46L27.78 479.24L27.02 475.84L26.37 472.27L25.86 468.52L25.46 464.59L25.2 460.49L25.07 456.2L25.08 451.72L25.22 447.07L25.5 442.22L25.92 437.19L26.49 431.98L27.2 426.57L28.06 420.97L29.08 415.17L30.25 409.19L31.58 403L33.07 396.62L34.72 390.04L36.53 383.26L38.52 376.28L40.67 369.1L43 361.71L45.5 354.12L48.18 346.32L51.04 338.31L53.87 330.67L56.82 323.01L59.87 315.34L63.03 307.66L66.27 299.99L69.6 292.35L73.02 284.73L76.5 277.16L80.06 269.63L83.67 262.17L87.34 254.79L91.06 247.49L94.82 240.28L98.61 233.18L102.43 226.2L106.27 219.34L110.13 212.62L113.99 206.06L117.86 199.65L121.72 193.41L125.57 187.36L129.41 181.49L133.22 175.83L136.99 170.39L140.73 165.17L144.43 160.19L148.08 155.45L151.67 150.97L155.2 146.76L158.65 142.82L162.03 139.18L165.33 135.84L168.54 132.81L171.65 130.1L174.66 127.72L177.56 125.69L180.35 124.01L181.74 123.33L181.91 123.19L183.59 122.23L185.37 121.53L185.47 121.53L185.51 121.53L185.55 121.52L185.59 121.51L185.63 121.51L185.67 121.5L185.71 121.49L185.75 121.48L185.79 121.48L185.82 121.47L185.86 121.46L185.89 121.45L185.93 121.44L185.96 121.44L186 121.43L186.03 121.42L186.07 121.41L186.1 121.4L186.2 121.37L186.24 121.36L186.27 121.36L186.31 121.35L186.34 121.34L186.38 121.33L186.41 121.32L186.45 121.31L186.49 121.3L186.53 121.29L186.56 121.29L186.6 121.28L186.64 121.27L186.69 121.26L186.73 121.26L186.77 121.25L186.82 121.24L186.86 121.23L186.91 121.23L186.96 121.22L187.01 121.21L187.17 121.2L187.34 121.18L187.5 121.17L187.67 121.15L187.83 121.14L187.95 121.13L188.08 121.12L188.22 121.1L188.36 121.08L188.5 121.07L188.6 121.06L189.95 120.91L192.08 121.06L194.35 121.55L196.73 122.39L199.22 123.57L201.83 125.07L204.54 126.88L207.35 129.01L210.25 131.44L213.24 134.16L216.32 137.15L219.47 140.42L222.69 143.96L225.97 147.75L229.32 151.78L232.72 156.05L236.17 160.55L239.67 165.26L243.2 170.19L246.77 175.31L250.36 180.63L253.97 186.12L257.61 191.8L261.25 197.63L264.9 203.62L268.55 209.76L272.19 216.04L275.82 222.44L279.44 228.96L283.03 235.59L286.6 242.33L290.13 249.15L293.62 256.06L297.08 263.04L300.48 270.09L303.83 277.2L307.11 284.35L310.33 291.54L313.48 298.76L316.56 306L316.52 306.09L316.8 306.72L317.15 307.53L317.5 308.33L317.85 309.14L318.2 309.94L318.54 310.75L318.89 311.56L319.23 312.37L319.57 313.17L319.91 313.98L320.25 314.79L320.59 315.6L320.92 316.41L321.26 317.22L321.59 318.03L321.92 318.83L322.17 319.43L321.93 318.83L321.61 318.03L321.29 317.22L320.96 316.41L320.64 315.6L320.31 314.79L319.98 313.98L319.65 313.17L319.32 312.37L318.99 311.56L318.66 310.75L318.32 309.94L317.99 309.14L317.65 308.33L317.31 307.53L316.98 306.72L316.64 305.92L319.44 299.34L322.3 292.78L325.23 286.24L328.21 279.72L331.23 273.25L334.31 266.81L337.43 260.43L340.58 254.1L343.77 247.83L346.99 241.64L350.24 235.52L353.51 229.48L356.79 223.53L360.09 217.68L363.4 211.94L366.71 206.3L370.03 200.79L373.34 195.4L376.65 190.13L379.95 185.01L383.23 180.03L386.49 175.21L389.73 170.54L392.94 166.04L396.12 161.71L399.26 157.55L402.37 153.59L405.43 149.82L408.44 146.24L411.4 142.88L414.31 139.72L417.15 136.79L419.94 134.09L422.65 131.61L425.29 129.38L427.86 127.4L430.34 125.67L432.74 124.2L435.05 123L437.27 122.07L435.89 122.94L434.61 124.05L433.41 125.4L432.29 126.98L431.75 127.95L432.82 126.57L434.16 125.23L435.59 124.11L437.12 123.25L437.27 123.2L437.42 123.15L437.57 123.1L437.72 123.05L437.88 123L438.03 122.96L438.18 122.91L438.33 122.87L438.48 122.83L438.64 122.79L438.79 122.75L438.94 122.71L439.1 122.67L439.25 122.63L439.41 122.6L439.56 122.56L439.72 122.53L439.87 122.5L440.03 122.47L440.18 122.44L440.34 122.41L440.5 122.38L440.65 122.35L440.81 122.33L440.97 122.3L441.13 122.28L441.28 122.26L441.44 122.24L441.6 122.22L441.76 122.2L441.92 122.18L442.08 122.16L442.24 122.15L442.4 122.13L442.55 122.12L442.71 122.11L442.87 122.1L443.03 122.09L443.19 122.08L443.35 122.07L443.48 122.08L443.61 122.1L443.74 122.11L443.87 122.12L444 122.14L444.13 122.15L444.26 122.17L444.39 122.18L444.52 122.2L444.65 122.22L444.78 122.24L444.91 122.26L445.04 122.28L445.17 122.3L445.3 122.32L445.42 122.34L445.55 122.36L445.68 122.39L445.81 122.41L445.94 122.44L446.06 122.46L446.19 122.49L446.32 122.52L446.44 122.54L446.57 122.57L446.7 122.6L446.82 122.63L446.95 122.66L447.07 122.69L447.2 122.73L447.33 122.76L447.45 122.79L447.58 122.83L447.7 122.86L447.82 122.9L447.95 122.94L448.07 122.97L448.2 123.01L448.32 123.05L448.44 123.09L449.54 123.68L448.52 122.84L447.13 121.99L449.62 123.03L452.23 124.41L454.96 126.13L457.78 128.17L460.71 130.54L463.74 133.21L466.85 136.18L470.05 139.44L473.32 142.98L476.66 146.79L480.07 150.86L483.54 155.18L487.06 159.74L490.62 164.53L494.23 169.54L497.88 174.77L501.55 180.19L505.25 185.81L508.96 191.61L512.69 197.58L516.43 203.71L520.16 210L523.89 216.43L527.61 222.99L531.31 229.68L534.99 236.48L538.64 243.38L542.25 250.38L545.82 257.47L549.35 264.63L552.82 271.85L556.24 279.13L559.59 286.46L562.87 293.83L566.07 301.22L569.19 308.62L572.23 316.04L575.17 323.45L578.01 330.85L580.75 338.23L583.61 346.24L586.29 354.04L588.79 361.63L591.12 369.02L593.27 376.2L595.25 383.18L597.07 389.96L598.72 396.54L600.21 402.92L601.54 409.1L602.71 415.08L603.72 420.87L604.59 426.47L605.3 431.88L605.87 437.1L606.29 442.12L606.57 446.96L606.72 451.62L606.72 456.09L606.59 460.38L606.33 464.48L605.94 468.41L605.43 472.16L604.79 475.73L604.03 479.12L603.15 482.34L602.15 485.39L601.04 488.27L599.82 490.97L598.49 493.51L597.06 495.88L595.52 498.09L593.88 500.13L592.14 502.01L590.31 503.73L588.39 505.28L586.37 506.68L584.27 507.93L582.08 509.01L579.81 509.95L579.73 509.95L577.38 510.7L575 511.28L572.58 511.69L570.13 511.92L567.65 511.97L565.14 511.84L562.59 511.52L560.02 511.01L557.42 510.31L554.79 509.42L552.14 508.33L549.46 507.04L546.75 505.55L544.03 503.86L541.28 501.95L538.51 499.84L535.72 497.52L532.91 494.98L530.09 492.22L527.25 489.24L524.39 486.03L521.52 482.6L518.63 478.94L515.73 475.05L512.82 470.92L509.9 466.56L506.97 461.95L504.03 457.1L501.09 452.01L498.13 446.67L495.18 441.07L492.21 435.23L489.25 429.12L486.28 422.76L483.31 416.14L480.34 409.25L477.37 402.09L474.41 394.66L471.44 386.96L468.48 378.99L467.7 376.81L466.92 374.63L466.15 372.44L465.38 370.26L464.62 368.07L463.87 365.88L463.12 363.69L462.38 361.49L461.65 359.29L460.92 357.09L460.21 354.89L459.49 352.69L458.79 350.48L458.09 348.28L457.4 346.07L456.71 343.86L456.03 341.64L455.36 339.43L454.69 337.21L454.03 334.99L453.38 332.77L452.74 330.54L452.1 328.32L451.47 326.09L450.84 323.86L450.22 321.63L449.61 319.39L449.01 317.16L448.41 314.92L447.82 312.68L447.23 310.44L446.65 308.2L446.08 305.95L445.52 303.71L444.96 301.46L444.41 299.21L443.87 296.96L443.33 294.71L442.8 292.45L442.3 290.29L441.83 292.3L441.3 294.56L440.77 296.82ZM442.33 289.95L442.44 289.47L441.33 285.15L440.35 281.22L440.94 283.92L442.33 289.95ZM189.35 121.02L189.21 121.03L189.07 121.03L188.93 121.04L188.78 121.05L188.64 121.06L188.6 121.06L187.96 121.13L188 121.13L188.16 121.12L188.33 121.11L188.5 121.11L188.66 121.11L188.83 121.1L188.99 121.1L189.16 121.1L189.32 121.1L189.49 121.11L189.65 121.11L189.82 121.12L189.98 121.13L190.15 121.14L190.31 121.15L190.48 121.16L190.64 121.18L190.81 121.19L190.97 121.21L191.14 121.23L191.3 121.25L191.46 121.27L191.63 121.29L191.79 121.32L191.95 121.34L192.11 121.37L192.27 121.4L192.44 121.43L192.6 121.47L192.76 121.5L192.92 121.53L193.08 121.57L193.24 121.61L193.4 121.65L193.56 121.69L193.6 121.69L193.58 121.68L193.58 121.6L193.5 121.6L193.36 121.56L193.23 121.52L193.09 121.48L192.96 121.45L192.82 121.41L192.69 121.38L192.55 121.34L192.41 121.31L192.27 121.28L192.14 121.26L192 121.23L191.86 121.21L191.72 121.18L191.58 121.16L191.44 121.14L191.31 121.12L191.17 121.1L191.03 121.09L190.89 121.07L190.75 121.06L190.61 121.05L190.47 121.04L190.33 121.03L190.19 121.03L190.05 121.02L189.91 121.02L189.77 121.02L189.63 121.02L189.49 121.02L189.35 121.02Z" id="aZaJoQZav"></path></defs><g><g><g><use xlink:href="#bApsAU59s" opacity="1" fill="#ec008b" fill-opacity="1"></use><g><use xlink:href="#bApsAU59s" opacity="1" fill-opacity="0" stroke="#000000" stroke-width="1" stroke-opacity="0"></use></g></g><g><use xlink:href="#e52SBKnxYI" opacity="1" fill="#f15e22" fill-opacity="1"></use><g><use xlink:href="#e52SBKnxYI" opacity="1" fill-opacity="0" stroke="#000000" stroke-width="1" stroke-opacity="0"></use></g></g><g><use xlink:href="#b2GI8dJo3Z" opacity="1" fill="#ec008b" fill-opacity="1"></use><g><use xlink:href="#b2GI8dJo3Z" opacity="1" fill-opacity="0" stroke="#000000" stroke-width="1" stroke-opacity="0"></use></g></g><g><use xlink:href="#c2WgBNtTVs" opacity="1" fill="#f15e22" fill-opacity="1"></use><g><use xlink:href="#c2WgBNtTVs" opacity="1" fill-opacity="0" stroke="#000000" stroke-width="1" stroke-opacity="0"></use></g></g><g><use xlink:href="#aBkLtaVc1" opacity="1" fill="#ec008b" fill-opacity="1"></use><g><use xlink:href="#aBkLtaVc1" opacity="1" fill-opacity="0" stroke="#000000" stroke-width="1" stroke-opacity="0"></use></g></g><g><use xlink:href="#amX0EYMpR" opacity="1" fill="#f37320" fill-opacity="1"></use><g><use xlink:href="#amX0EYMpR" opacity="1" fill-opacity="0" stroke="#000000" stroke-width="1" stroke-opacity="0"></use></g></g><g><use xlink:href="#hrmAmMn4t" opacity="1" fill="#f15e22" fill-opacity="1"></use><g><use xlink:href="#hrmAmMn4t" opacity="1" fill-opacity="0" stroke="#000000" stroke-width="1" stroke-opacity="0"></use></g></g><g><use xlink:href="#aXesBwaY8" opacity="1" fill="#ec008b" fill-opacity="1"></use><g><use xlink:href="#aXesBwaY8" opacity="1" fill-opacity="0" stroke="#000000" stroke-width="1" stroke-opacity="0"></use></g></g><g><use xlink:href="#b2sDH1C1cv" opacity="1" fill="#f15e22" fill-opacity="1"></use><g><use xlink:href="#b2sDH1C1cv" opacity="1" fill-opacity="0" stroke="#000000" stroke-width="1" stroke-opacity="0"></use></g></g><g><use xlink:href="#b3UPNStaU" opacity="1" fill="#ec008b" fill-opacity="1"></use><g><use xlink:href="#b3UPNStaU" opacity="1" fill-opacity="0" stroke="#000000" stroke-width="1" stroke-opacity="0"></use></g></g><g><use xlink:href="#a3GpphYGw7" opacity="1" fill="#f15e22" fill-opacity="1"></use><g><use xlink:href="#a3GpphYGw7" opacity="1" fill-opacity="0" stroke="#000000" stroke-width="1" stroke-opacity="0"></use></g></g><g><use xlink:href="#czkOI5wu" opacity="1" fill="#ec008b" fill-opacity="1"></use><g><use xlink:href="#czkOI5wu" opacity="1" fill-opacity="0" stroke="#000000" stroke-width="1" stroke-opacity="0"></use></g></g><g><use xlink:href="#aZaJoQZav" opacity="1" fill="#f13ab1" fill-opacity="0"></use><g><use xlink:href="#aZaJoQZav" opacity="1" fill-opacity="0" stroke="#000000" stroke-width="15" stroke-opacity="1"></use></g></g></g></g></svg>